<svg xmlns="http://www.w3.org/2000/svg" version="1.1" xmlns:xlink="http://www.w3.org/1999/xlink" xmlns:svgjs="http://svgjs.dev/svgjs" width="128" height="128" viewBox="0 0 128 128"><g transform="matrix(0.8046875,0,0,0.8046875,12.333870967741937,12.333870967741937)"><svg viewBox="0 0 155 155" data-background-color="#ffbb2b" preserveAspectRatio="xMidYMid meet" height="128" width="128" xmlns="http://www.w3.org/2000/svg" xmlns:xlink="http://www.w3.org/1999/xlink"><g id="tight-bounds" transform="matrix(1,0,0,1,0.25,0.25)"><svg viewBox="0 0 154.5 154.5" height="154.5" width="154.5"><g><svg></svg></g><g><svg viewBox="0 0 154.5 154.5" height="154.5" width="154.5"><g transform="matrix(1,0,0,1,39.0576,53.756932279909705)"><svg viewBox="0 0 76.3848 46.98613544018059" height="46.98613544018059" width="76.3848"><g><svg viewBox="0 0 76.3848 46.98613544018059" height="46.98613544018059" width="76.3848"><g><svg viewBox="0 0 76.3848 46.98613544018059" height="46.98613544018059" width="76.3848"><g id="textblocktransform"><svg viewBox="0 0 76.3848 46.98613544018059" height="46.98613544018059" width="76.3848" id="textblock"><g><svg viewBox="0 0 76.3848 46.98613544018059" height="46.98613544018059" width="76.3848"><g transform="matrix(1,0,0,1,0,0)"><svg width="76.3848" viewBox="2.15 -26.65 44.300000000000004 27.25" height="46.98613544018059" data-palette-color="#e26026"><path d="M12.8-3.35L12.8-3.35Q14.45-3.35 15.73-3.43 17-3.5 17.85-3.7L17.85-3.7 17.85-11.45Q17.35-11.7 16.23-11.88 15.1-12.05 13.5-12.05L13.5-12.05Q12.45-12.05 11.28-11.9 10.1-11.75 9.13-11.28 8.15-10.8 7.5-9.98 6.85-9.15 6.85-7.8L6.85-7.8Q6.85-5.3 8.45-4.33 10.05-3.35 12.8-3.35ZM12.4-26.65L12.4-26.65Q15.2-26.65 17.13-25.93 19.05-25.2 20.23-23.88 21.4-22.55 21.9-20.73 22.4-18.9 22.4-16.7L22.4-16.7 22.4-0.45Q21.8-0.35 20.73-0.18 19.65 0 18.3 0.15 16.95 0.3 15.38 0.43 13.8 0.55 12.25 0.55L12.25 0.55Q10.05 0.55 8.2 0.1 6.35-0.35 5-1.33 3.65-2.3 2.9-3.9 2.15-5.5 2.15-7.75L2.15-7.75Q2.15-9.9 3.03-11.45 3.9-13 5.4-13.95 6.9-14.9 8.9-15.35 10.9-15.8 13.1-15.8L13.1-15.8Q13.8-15.8 14.55-15.73 15.3-15.65 15.98-15.53 16.65-15.4 17.15-15.3 17.65-15.2 17.85-15.15L17.85-15.15 17.85-16.45Q17.85-17.6 17.6-18.73 17.35-19.85 16.7-20.73 16.05-21.6 14.93-22.13 13.8-22.65 12-22.65L12-22.65Q9.7-22.65 7.98-22.33 6.25-22 5.4-21.65L5.4-21.65 4.85-25.5Q5.75-25.9 7.85-26.28 9.95-26.65 12.4-26.65ZM36.15-3.35L36.15-3.35Q39-3.35 40.37-4.1 41.75-4.85 41.75-6.5L41.75-6.5Q41.75-8.2 40.4-9.2 39.05-10.2 35.95-11.45L35.95-11.45Q34.45-12.05 33.07-12.68 31.7-13.3 30.7-14.15 29.7-15 29.1-16.2 28.5-17.4 28.5-19.15L28.5-19.15Q28.5-22.6 31.05-24.63 33.6-26.65 38-26.65L38-26.65Q39.1-26.65 40.2-26.53 41.3-26.4 42.25-26.23 43.2-26.05 43.92-25.85 44.65-25.65 45.05-25.5L45.05-25.5 44.2-21.5Q43.45-21.9 41.85-22.33 40.25-22.75 38-22.75L38-22.75Q36.05-22.75 34.6-21.98 33.15-21.2 33.15-19.55L33.15-19.55Q33.15-18.7 33.47-18.05 33.8-17.4 34.47-16.88 35.15-16.35 36.15-15.9 37.15-15.45 38.55-14.95L38.55-14.95Q40.4-14.25 41.85-13.58 43.3-12.9 44.32-12 45.35-11.1 45.9-9.83 46.45-8.55 46.45-6.7L46.45-6.7Q46.45-3.1 43.77-1.25 41.1 0.6 36.15 0.6L36.15 0.6Q32.7 0.6 30.75 0.03 28.8-0.55 28.1-0.85L28.1-0.85 28.95-4.85Q29.75-4.55 31.5-3.95 33.25-3.35 36.15-3.35Z" opacity="1" transform="matrix(1,0,0,1,0,0)" fill="#e26026" class="wordmark-text-0" data-fill-palette-color="primary" id="text-0"></path></svg></g></svg></g></svg></g></svg></g></svg></g></svg></g><g><path d="M0 154.5v-154.5h154.5v154.5zM150.263 150.263v-146.026h-146.026v146.026z" fill="#e26026" fill-rule="nonzero" stroke="none" stroke-width="1" stroke-linecap="butt" stroke-linejoin="miter" stroke-miterlimit="10" stroke-dasharray="" stroke-dashoffset="0" font-family="none" font-weight="none" font-size="none" text-anchor="none" style="mix-blend-mode: normal" data-fill-palette-color="tertiary"></path></g></svg></g><defs></defs></svg><rect width="154.5" height="154.5" fill="none" stroke="none" visibility="hidden"></rect></g></svg></g></svg>